<svg width="512" height="512" viewBox="0 0 512 512" fill="none" xmlns="http://www.w3.org/2000/svg">
<path d="M490.667 0H21.333C9.536 0 0 9.557 0 21.333V490.666C0 502.443 9.536 512 21.333 512H490.666C502.463 512 511.999 502.443 511.999 490.667V21.333C512 9.557 502.464 0 490.667 0ZM399.083 207.083L249.749 356.416C245.738 360.427 240.32 362.667 234.666 362.667C234.175 362.667 233.663 362.646 233.151 362.624C226.986 362.176 221.311 359.083 217.599 354.133L153.599 268.8C146.516 259.371 148.436 245.995 157.866 238.933C167.295 231.85 180.671 233.77 187.733 243.2L236.97 308.864L368.917 176.917C377.258 168.576 390.741 168.576 399.082 176.917C407.424 185.259 407.424 198.741 399.083 207.083Z" fill="white"/>
</svg>
